<svg xmlns="http://www.w3.org/2000/svg" width="15000.000000pt" height="5097.000000pt" viewBox="0 0 15000.000000 5097.000000" preserveAspectRatio="xMidYMid meet"><g transform="translate(0.000000,5097.000000) scale(0.100000,-0.100000)" fill="#000000" stroke="none"><path d="M76010 44739 c-1471 -66 -2894 -280 -4256 -639 -1009 -267 -1940 -589 -2919 -1013 -772 -333 -1757 -847 -2480 -1292 -1822 -1123 -3419 -2498 -4821 -4150 -1788 -2108 -3154 -4660 -3927 -7335 -425 -1468 -661 -2856 -764 -4480 -26 -406 -26 -1794 0 -2195 146 -2282 580 -4249 1391 -6303 710 -1800 1741 -3574 2963 -5099 729 -910 1564 -1785 2428 -2544 1607 -1410 3427 -2552 5423 -3400 1407 -598 3053 -1072 4564 -1315 1993 -319 3945 -345 5923 -78 1403 190 2786 532 4169 1030 1047 379 2220 931 3235 1523 1815 1060 3496 2439 4871 3996 2211 2503 3737 5438 4505 8663 568 2386 691 4893 359 7322 -402 2944 -1433 5720 -3049 8210 -642 989 -1333 1874 -2164 2770 -177 190 -766 780 -954 954 -1760 1630 -3660 2864 -5837 3794 -1651 705 -3409 1186 -5195 1421 -642 85 -1157 130 -1850 161 -254 11 -1356 11 -1615 -1z m1615 -7673 c1658 -111 3222 -532 4705 -1267 1421 -704 2685 -1671 3746 -2864 1085 -1220 1931 -2676 2454 -4220 586 -1733 782 -3521 584 -5330 -296 -2704 -1486 -5249 -3373 -7210 -1152 -1197 -2502 -2131 -4031 -2790 -1321 -569 -2785 -912 -4200 -985 -252 -13 -1098 -13 -1350 0 -979 50 -2054 244 -3000 540 -1605 502 -3096 1327 -4365 2415 -396 339 -852 787 -1201 1180 -542 610 -1059 1328 -1467 2037 -1347 2341 -1888 5046 -1546 7738 307 2423 1344 4721 2963 6570 588 671 1321 1342 2001 1832 982 707 1925 1211 3029 1620 1128 417 2374 676 3556 738 113 6 230 12 260 14 141 9 1024 -4 1235 -18z"></path><path d="M118275 44739 c-704 -33 -1338 -90 -1940 -175 -1301 -184 -2488 -468 -3753 -898 -1185 -404 -2428 -973 -3567 -1634 -1471 -853 -2895 -1953 -4094 -3161 -1135 -1144 -2045 -2298 -2876 -3646 -328 -533 -532 -899 -825 -1480 -458 -911 -795 -1720 -1115 -2680 -608 -1824 -941 -3657 -1016 -5600 -17 -446 -6 -1489 20 -1900 47 -734 125 -1431 232 -2079 350 -2124 1039 -4176 2043 -6086 1585 -3013 3956 -5609 6816 -7462 2347 -1520 4973 -2530 7725 -2972 913 -146 1763 -223 2755 -247 1472 -37 3109 116 4535 422 1193 257 2229 571 3327 1008 1193 475 2431 1119 3498 1819 1160 761 2184 1588 3148 2546 1844 1830 3298 3968 4317 6346 224 522 481 1211 657 1760 964 3011 1203 6201 697 9320 -523 3228 -1838 6296 -3812 8895 -574 756 -1115 1374 -1821 2080 -1450 1450 -3067 2631 -4921 3597 -1718 894 -3605 1543 -5530 1902 -948 177 -1816 275 -2880 326 -241 11 -1367 11 -1620 -1z"></path><path d="M31935 43823 c-33 -1 -161 -7 -285 -13 -566 -27 -1223 -89 -1756 -165 -1693 -243 -3251 -673 -4814 -1328 -1143 -479 -2326 -1119 -3355 -1816 -1421 -961 -2743 -2132 -3831 -3391 -1722 -1992 -2984 -4203 -3800 -6655 -493 -1483 -797 -2970 -928 -4545 -52 -612 -61 -855 -61 -1610 0 -692 6 -892 40 -1390 284 -4110 1861 -8021 4509 -11180 1730 -2064 3864 -3752 6246 -4943 833 -417 1484 -691 2385 -1003 1418 -492 2902 -815 4445 -968 1520 -151 3145 -118 4660 95 641 90 1393 236 2005 391 1438 362 2710 833 4005 1484 809 406 1416 760 2161 1260 866 581 1758 1294 2504 1999 1835 1737 3304 3777 4352 6045 1571 3399 2126 7208 1597 10955 -213 1510 -611 3016 -1169 4425 -94 237 -315 753 -421 985 -101 219 -436 891 -555 1110 -611 1132 -1346 2218 -2164 3200 -479 574 -843 968 -1411 1526 -1800 1767 -4013 3208 -6365 4147 -1309 523 -2640 899 -3974 1122 -829 138 -1563 216 -2450 260 -181 9 -1401 11 -1570 3z m1280 -2563 c336 -12 727 -34 970 -56 468 -41 1170 -135 1530 -204 28 -5 147 -28 265 -50 1129 -217 2377 -605 3455 -1075 1321 -576 2550 -1308 3695 -2200 2345 -1826 4203 -4290 5315 -7050 1080 -2680 1453 -5596 1085 -8485 -416 -3263 -1770 -6313 -3929 -8850 -441 -518 -1016 -1108 -1556 -1594 -1726 -1558 -3791 -2763 -5980 -3492 -2337 -777 -4796 -1036 -7255 -763 -2108 234 -4146 861 -6015 1852 -1919 1017 -3610 2375 -5026 4037 -1187 1393 -2153 2997 -2839 4715 -1051 2630 -1419 5526 -1064 8370 419 3358 1838 6509 4085 9070 459 522 1028 1092 1546 1547 1129 991 2315 1790 3642 2453 1880 940 3923 1523 5991 1709 733 67 1433 89 2085 66z"></path><path d="M21555 42997 c-1356 -810 -2527 -1685 -3690 -2757 -416 -384 -1038 -1018 -1461 -1490 -488 -545 -1015 -1205 -1483 -1859 -140 -194 -542 -795 -678 -1011 -762 -1212 -1415 -2516 -1913 -3820 -779 -2039 -1241 -4147 -1385 -6320 -35 -537 -40 -707 -40 -1455 0 -749 5 -949 40 -1470 153 -2271 645 -4454 1480 -6560 881 -2223 2121 -4274 3703 -6128 590 -691 1370 -1486 2057 -2097 1037 -924 2162 -1749 3310 -2431 328 -195 383 -224 210 -109 -464 309 -1278 947 -1848 1448 -630 553 -1318 1239 -1918 1912 -736 825 -1512 1867 -2161 2900 -1891 3013 -3072 6513 -3427 10160 -78 791 -111 1505 -111 2370 0 835 28 1467 100 2255 278 3038 1148 6028 2525 8675 1287 2476 2957 4620 4995 6415 585 515 1285 1061 1920 1497 71 48 -11 3 -225 -125z"></path><path d="M43510 43137 c0 -2 35 -28 78 -58 444 -304 1087 -797 1557 -1194 2138 -1804 3932 -4060 5271 -6625 1970 -3778 2872 -8089 2608 -12470 -195 -3235 -1029 -6355 -2459 -9195 -298 -592 -508 -974 -825 -1500 -1202 -1997 -2671 -3752 -4390 -5246 -517 -449 -1229 -1003 -1732 -1348 -43 -30 -78 -56 -78 -58 0 -6 83 42 350 202 1727 1040 3334 2349 4726 3850 1807 1948 3259 4242 4242 6700 846 2115 1348 4323 1501 6600 39 576 46 798 45 1490 0 631 -6 868 -35 1335 -212 3498 -1261 6873 -3066 9870 -1333 2215 -3051 4176 -5078 5796 -804 643 -1793 1323 -2595 1784 -41 24 -85 50 -97 58 -13 8 -23 12 -23 9z"></path></g></svg>