<svg xmlns="http://www.w3.org/2000/svg" width="14999.000000pt" height="7409.000000pt" viewBox="0 0 14999.000000 7409.000000" preserveAspectRatio="xMidYMid meet"><g transform="translate(0.000000,7409.000000) scale(0.100000,-0.100000)" fill="#000000" stroke="none"><path d="M75890 67409 c-1633 -49 -3338 -351 -4895 -866 -1899 -628 -3626 -1540 -5200 -2746 -1328 -1018 -2522 -2247 -3511 -3612 -1278 -1763 -2207 -3730 -2763 -5850 -285 -1086 -460 -2182 -537 -3365 -31 -479 -34 -1541 -5 -2030 143 -2427 764 -4748 1842 -6890 1274 -2532 3136 -4709 5439 -6360 2068 -1482 4422 -2492 6925 -2969 1199 -228 2478 -334 3658 -302 1033 28 1868 113 2802 287 513 95 1145 242 1575 365 1180 340 2250 764 3305 1312 2320 1205 4357 2929 5916 5007 1265 1686 2211 3565 2799 5562 826 2801 942 5709 344 8573 -168 803 -434 1718 -729 2510 -1294 3470 -3672 6457 -6760 8490 -2050 1350 -4329 2247 -6735 2650 -1167 195 -2275 270 -3470 234z m1255 -6714 c976 -70 1849 -240 2720 -530 925 -309 1793 -735 2618 -1287 779 -521 1539 -1197 2168 -1928 1458 -1696 2361 -3834 2559 -6060 31 -356 40 -567 40 -969 0 -407 -9 -633 -41 -980 -245 -2723 -1527 -5268 -3569 -7085 -1014 -903 -2197 -1613 -3451 -2071 -976 -357 -1889 -554 -2969 -641 -264 -21 -1030 -30 -1282 -15 -986 59 -1804 202 -2662 468 -2412 745 -4464 2288 -5850 4396 -902 1372 -1482 2945 -1686 4571 -61 488 -80 808 -80 1351 0 785 58 1381 205 2120 409 2047 1405 3937 2860 5424 917 938 1988 1698 3155 2241 1243 579 2498 899 3915 999 211 15 1128 12 1350 -4z"></path><path d="M112835 67409 c-1108 -33 -2359 -198 -3435 -455 -1581 -376 -3034 -934 -4430 -1702 -2021 -1110 -3787 -2598 -5246 -4417 -971 -1211 -1819 -2635 -2437 -4090 -938 -2212 -1416 -4635 -1384 -7020 9 -683 33 -1072 103 -1720 278 -2569 1139 -5073 2504 -7285 1216 -1970 2823 -3690 4709 -5040 2572 -1840 5599 -2950 8756 -3209 938 -78 1970 -76 2910 5 2225 190 4398 803 6365 1795 710 358 1191 637 1835 1064 2363 1567 4316 3695 5677 6185 871 1594 1495 3334 1832 5106 133 697 221 1371 271 2064 50 707 50 1748 0 2450 -204 2841 -1077 5550 -2569 7970 -893 1450 -1985 2747 -3296 3916 -993 885 -2179 1707 -3400 2354 -1064 565 -2230 1035 -3370 1360 -1763 503 -3546 724 -5395 669z"></path><path d="M37130 66604 c-2831 -120 -5551 -920 -7975 -2347 -1259 -741 -2414 -1641 -3451 -2688 -613 -619 -1051 -1125 -1552 -1790 -1437 -1914 -2456 -4106 -2986 -6424 -231 -1012 -360 -1955 -418 -3070 -15 -299 -15 -1213 1 -1520 82 -1623 335 -3028 811 -4515 349 -1090 873 -2268 1455 -3271 643 -1107 1397 -2133 2242 -3049 184 -199 731 -747 933 -934 1583 -1467 3361 -2591 5351 -3382 1253 -497 2617 -854 3949 -1033 2051 -275 4034 -195 6035 245 2532 557 4940 1710 6970 3338 754 605 1483 1298 2131 2026 692 779 1377 1723 1937 2670 249 421 638 1171 836 1610 853 1894 1348 3882 1481 5950 42 656 42 1556 0 2205 -120 1825 -514 3571 -1189 5257 -414 1035 -956 2073 -1567 3001 -674 1022 -1350 1853 -2199 2703 -1140 1141 -2300 2026 -3710 2831 -421 240 -1056 557 -1545 770 -1115 486 -2174 823 -3390 1077 -628 131 -1385 242 -1995 291 -558 44 -641 47 -1365 50 -393 1 -749 1 -790 -1z m1240 -2244 c747 -28 1310 -87 2067 -215 1186 -202 2411 -582 3561 -1106 516 -236 1166 -584 1645 -881 1316 -818 2468 -1806 3488 -2993 962 -1121 1782 -2440 2369 -3815 592 -1388 973 -2879 1115 -4370 8 -91 18 -190 20 -220 52 -541 58 -1604 15 -2225 -140 -1977 -646 -3838 -1519 -5585 -299 -599 -546 -1025 -921 -1589 -569 -858 -1144 -1557 -1904 -2316 -736 -735 -1492 -1348 -2376 -1927 -496 -325 -944 -580 -1505 -858 -1733 -859 -3559 -1356 -5480 -1494 -451 -33 -628 -39 -1105 -38 -680 1 -1190 32 -1845 112 -179 22 -198 25 -515 75 -1616 256 -3255 820 -4729 1627 -1567 859 -2973 2004 -4167 3394 -636 740 -1242 1618 -1726 2497 -125 229 -410 799 -510 1022 -685 1524 -1096 3079 -1247 4725 -48 518 -55 698 -56 1355 0 698 10 929 66 1490 309 3119 1610 6064 3714 8408 1406 1567 3120 2815 5030 3664 425 189 1015 418 1395 541 1653 538 3417 786 5120 722z"></path><path d="M47325 65993 c6 -6 64 -48 130 -94 1551 -1077 3028 -2516 4204 -4093 1398 -1876 2439 -3952 3130 -6241 704 -2336 993 -4892 836 -7390 -166 -2622 -806 -5149 -1895 -7480 -560 -1198 -1278 -2401 -2044 -3425 -970 -1297 -1997 -2370 -3236 -3381 -325 -264 -779 -606 -1047 -788 -63 -42 -83 -62 -40 -40 42 22 447 268 585 355 870 550 1709 1177 2437 1823 607 538 1264 1201 1796 1811 1520 1745 2726 3791 3515 5964 1092 3005 1408 6246 918 9431 -310 2017 -955 3994 -1897 5810 -1145 2210 -2686 4143 -4612 5786 -472 402 -1194 948 -1715 1296 -303 202 -1106 697 -1065 656z"></path><path d="M28035 65827 c-884 -532 -1638 -1071 -2455 -1756 -259 -218 -309 -261 -625 -551 -1437 -1318 -2671 -2865 -3653 -4580 -336 -588 -689 -1296 -957 -1920 -838 -1953 -1344 -4051 -1489 -6170 -35 -501 -41 -699 -41 -1335 1 -633 6 -809 41 -1320 192 -2834 1028 -5608 2432 -8070 1139 -1997 2602 -3745 4367 -5220 759 -634 1601 -1230 2450 -1735 256 -152 258 -152 75 -24 -1507 1056 -2895 2394 -4056 3909 -1186 1547 -2150 3295 -2841 5155 -1021 2745 -1449 5699 -1258 8685 223 3483 1294 6811 3118 9685 1021 1608 2248 3029 3672 4251 422 362 816 670 1255 982 220 156 247 176 240 176 -3 1 -126 -72 -275 -162z"></path><path d="M60110 37903 c-664 -402 -1630 -954 -2515 -1438 -822 -449 -2235 -1190 -3002 -1573 l-241 -121 315 -788 c173 -433 315 -788 316 -789 1 -1 78 -26 170 -57 l169 -56 426 144 c2055 691 3894 1355 5602 2022 l175 69 52 164 c29 91 53 171 53 177 0 14 -958 2253 -969 2265 -5 6 -354 89 -370 88 -3 -1 -85 -48 -181 -107z"></path><path d="M19450 31210 c-1254 -42 -2397 -265 -3380 -658 -1214 -486 -2224 -1234 -3037 -2252 -540 -676 -978 -1470 -1293 -2345 -402 -1119 -613 -2301 -671 -3775 -14 -363 -6 -1231 15 -1585 57 -934 171 -1705 367 -2475 521 -2045 1568 -3598 3099 -4595 943 -615 2121 -1020 3440 -1184 866 -108 1873 -119 2705 -30 1066 113 2047 365 3055 784 275 114 360 156 360 177 0 11 70 754 156 1650 85 897 154 1632 152 1633 -2 2 -79 47 -171 100 l-168 97 -152 -90 c-978 -577 -2176 -976 -3292 -1096 -350 -38 -409 -41 -780 -41 -538 1 -885 37 -1280 136 -1009 251 -1788 799 -2352 1654 -562 852 -908 2030 -1023 3480 -49 632 -58 1489 -20 2077 107 1661 511 2906 1218 3758 237 285 539 551 847 745 481 303 1111 514 1750 585 479 53 956 55 1430 4 1117 -118 2225 -526 3195 -1174 l115 -77 155 69 c85 38 156 70 158 72 2 2 158 732 346 1622 l343 1619 -196 97 c-996 493 -2122 817 -3286 947 -569 63 -1243 90 -1805 71z"></path><path d="M91945 31210 c-1736 -53 -3225 -445 -4455 -1173 -1185 -702 -2152 -1740 -2818 -3027 -785 -1515 -1168 -3416 -1139 -5645 6 -441 14 -651 37 -980 138 -1957 624 -3577 1458 -4855 1047 -1605 2578 -2621 4597 -3050 374 -79 795 -142 1255 -185 188 -18 577 -36 900 -41 1681 -28 3227 289 4753 976 26 11 47 26 47 31 0 6 70 742 155 1635 85 894 155 1633 155 1643 0 14 -47 45 -170 115 l-170 97 -132 -79 c-870 -521 -1947 -902 -3013 -1067 -628 -97 -1345 -111 -1875 -35 -962 137 -1718 501 -2334 1125 -712 721 -1172 1746 -1407 3139 -109 648 -159 1322 -159 2151 0 456 9 728 35 1070 157 2038 798 3454 1915 4228 598 415 1319 646 2209 708 215 15 803 6 1012 -15 280 -29 344 -38 619 -87 896 -162 1861 -556 2647 -1081 73 -48 138 -88 144 -88 27 0 309 133 313 149 3 9 156 732 341 1606 185 875 338 1597 341 1606 7 25 -494 263 -886 419 -571 228 -1274 427 -1905 539 -766 136 -1635 196 -2470 171z"></path><path d="M48380 31033 c-25 -2 -499 -33 -1055 -68 -2017 -130 -2378 -154 -2383 -160 -3 -3 0 -730 7 -1617 66 -8789 79 -10704 72 -10711 -4 -4 -63 -6 -131 -5 l-123 3 -714 1185 c-393 652 -1321 2191 -2062 3420 -741 1229 -1865 3092 -2497 4140 -632 1048 -1401 2324 -1709 2835 l-561 930 -2074 3 c-1141 1 -2077 -1 -2080 -5 -4 -5 31 -2928 78 -6498 l84 -6490 -96 -2620 c-53 -1441 -100 -2675 -103 -2742 l-6 -123 1767 0 1767 0 -6 178 c-3 97 -29 1500 -57 3117 l-51 2940 13 3130 c7 1722 14 3133 17 3138 2 4 55 7 116 7 l112 0 701 -1163 c944 -1565 2449 -4060 3644 -6042 541 -896 1241 -2057 1556 -2580 315 -522 813 -1348 1106 -1835 l534 -885 2097 -3 2098 -2 -6 152 c-3 84 -36 1359 -72 2833 l-65 2680 21 1230 c12 677 62 3541 111 6365 50 2824 90 5165 90 5203 l0 67 -47 -2 c-27 -1 -68 -3 -93 -5z"></path><path d="M115660 20518 c0 -10146 -2 -10986 -30 -11478 -74 -1337 -292 -2213 -705 -2834 -419 -632 -1018 -1006 -1875 -1171 -208 -40 -522 -74 -739 -80 -108 -3 -224 -8 -258 -11 l-63 -6 0 -260 0 -261 203 7 c1597 54 2900 530 3930 1436 692 608 1228 1421 1534 2325 152 449 238 856 300 1415 16 146 18 806 20 10798 l3 10642 -1160 0 -1160 0 0 -10522z"></path><path d="M119870 20860 l0 -10180 1145 0 1145 0 0 4735 0 4735 753 0 752 -1 20 -27 c20 -27 920 -1161 3935 -4957 1896 -2387 2997 -3773 3334 -4197 l228 -288 1475 0 1475 0 -49 63 c-27 34 -852 1072 -1833 2307 -981 1235 -2061 2594 -2399 3020 -339 426 -1229 1547 -1979 2490 l-1363 1714 208 32 c1237 193 2289 531 3150 1013 779 436 1409 1002 1843 1655 194 292 368 635 495 976 383 1029 442 2370 150 3405 -262 928 -790 1682 -1610 2300 -1035 779 -2648 1290 -4340 1375 -125 6 -1394 10 -3367 10 l-3168 0 0 -10180z m5260 9660 c579 -22 980 -64 1390 -147 1364 -273 2301 -875 2885 -1854 164 -274 262 -490 370 -814 192 -572 286 -1183 301 -1960 21 -999 -142 -1876 -480 -2580 -336 -702 -866 -1263 -1571 -1666 -132 -76 -430 -220 -575 -279 -447 -181 -994 -329 -1536 -414 -773 -122 -1308 -149 -2814 -144 l-935 3 -3 4920 c-1 2706 0 4926 3 4933 3 9 284 12 1357 12 744 0 1468 -5 1608 -10z"></path><path d="M25945 30758 c3 -128 40 -2404 81 -5058 41 -2654 85 -5466 97 -6250 l22 -1425 -96 -2630 c-53 -1446 -99 -2687 -102 -2758 l-6 -127 1955 0 1954 0 0 23 c-1 12 -40 1332 -88 2932 l-88 2910 116 6300 c64 3465 115 6303 113 6308 -2 4 -895 7 -1984 7 l-1980 0 6 -232z"></path><path d="M51595 30713 c5 -237 102 -6409 177 -11270 l22 -1448 -97 -2655 c-53 -1460 -100 -2694 -103 -2742 l-6 -88 5796 0 5796 0 4 23 c3 12 62 664 132 1448 l126 1427 -112 153 c-62 85 -114 156 -116 157 -2 3 -1654 -58 -2269 -83 -71 -3 -602 -24 -1180 -46 l-1050 -41 -1340 11 c-737 6 -1481 11 -1652 11 -172 0 -313 1 -314 3 0 1 -19 637 -43 1412 l-43 1410 15 970 c7 534 15 971 16 972 5 6 2991 31 3121 27 77 -3 662 -18 1300 -35 638 -16 1304 -33 1480 -38 176 -5 321 -8 322 -7 1 1 60 654 132 1450 l129 1449 -115 143 c-65 81 -122 144 -132 144 -9 0 -137 -5 -286 -10 -148 -5 -823 -26 -1498 -45 l-1229 -36 -1311 25 c-722 14 -1435 29 -1584 32 l-273 7 0 81 c1 210 89 4349 93 4353 8 7 373 13 1887 28 l1395 15 920 -30 c1667 -55 3268 -109 3403 -115 121 -6 132 -5 132 11 0 16 1 16 18 1 15 -14 136 -10 1397 53 759 38 1571 78 1805 90 509 24 1477 30 1485 8 3 -7 36 -2252 74 -4988 l70 -4975 -19 -525 c-11 -289 -53 -1477 -94 -2640 -41 -1163 -77 -2157 -80 -2207 l-5 -93 1949 0 1950 0 0 53 c0 28 -39 1335 -86 2902 l-86 2850 72 4795 c40 2637 74 4805 76 4818 l4 22 533 0 c527 0 548 -1 2232 -85 935 -46 1732 -87 1772 -90 l71 -7 6 54 c8 67 226 2806 226 2833 0 11 -52 91 -116 178 l-115 157 -12395 0 -12395 0 6 -277z"></path><path d="M77877 30658 c3 -183 49 -3103 102 -6488 l96 -6156 -96 -2614 c-53 -1438 -99 -2677 -102 -2752 l-6 -138 1955 0 1955 0 -7 188 c-4 103 -43 1416 -88 2917 l-82 2730 113 6130 c62 3372 112 6217 113 6323 l0 192 -1980 0 -1979 0 6 -332z"></path><path d="M102659 30963 c-5 -15 -214 -630 -464 -1368 -249 -737 -795 -2350 -1213 -3585 -418 -1235 -1594 -4706 -2612 -7715 -1018 -3008 -1876 -5541 -1905 -5627 l-54 -158 1922 0 1923 0 242 1308 242 1307 241 750 c133 413 245 754 249 758 8 9 2857 87 3190 88 118 0 697 -11 1285 -25 589 -14 1351 -33 1694 -41 344 -8 628 -18 631 -22 4 -5 114 -390 245 -858 l239 -850 231 -1205 231 -1205 1977 -3 c1087 -1 1977 0 1977 3 0 3 -327 1073 -726 2378 -399 1304 -1236 4039 -1859 6077 -623 2038 -1553 5075 -2065 6750 -512 1675 -947 3096 -966 3158 l-35 112 -2305 0 -2304 0 -11 -27z m2377 -3680 c10 -32 500 -1761 1089 -3843 l1073 -3785 -242 -8 c-745 -24 -2284 -52 -2556 -45 -162 4 -716 17 -1230 28 -514 12 -936 23 -937 24 -1 1 385 1178 858 2616 473 1438 1040 3164 1261 3835 220 671 403 1223 405 1228 2 4 62 7 133 7 l129 0 17 -57z"></path><path d="M136071 12399 l-744 -741 746 -746 747 -747 740 740 c407 407 740 744 740 750 0 10 -1471 1485 -1480 1485 -3 -1 -340 -334 -749 -741z"></path></g></svg>